<?xml version="1.0" standalone="no"?>
<!DOCTYPE svg PUBLIC "-//W3C//DTD SVG 20010904//EN"
 "http://www.w3.org/TR/2001/REC-SVG-20010904/DTD/svg10.dtd">
<svg version="1.0" xmlns="http://www.w3.org/2000/svg"
 width="80.000000pt" height="80.000000pt" viewBox="0 0 80.000000 80.000000"
 preserveAspectRatio="xMidYMid meet">
<metadata>
Created by potrace 1.14, written by Peter Selinger 2001-2017
</metadata>
<g transform="translate(0.000000,80.000000) scale(0.100000,-0.100000)"
fill="#000000" stroke="none">
<path d="M303 664 c-127 -45 -206 -197 -168 -322 23 -75 59 -123 120 -164 48
-32 54 -33 145 -33 107 0 126 8 193 79 66 71 94 190 64 273 -53 142 -212 217
-354 167z m72 -119 c50 -49 15 -135 -55 -135 -72 0 -109 96 -54 139 36 28 79
27 109 -4z"/>
</g>
</svg>
